<svg width="214" height="215" viewBox="0 0 214 215" fill="none" xmlns="http://www.w3.org/2000/svg">
<path d="M89.1875 32.3174H96.3125V39.4424H89.1875V32.3174Z" fill="#313030"/>
<path d="M181.812 117.817H188.938V124.942H181.812V117.817Z" fill="#313030"/>
<path d="M117.688 174.817H124.813V181.942H117.688V174.817Z" fill="#313030"/>
<path d="M89.1875 185.505H96.3125V192.63H89.1875V185.505Z" fill="#313030"/>
<path d="M32.1875 103.567H39.3125V110.692H32.1875V103.567Z" fill="#313030"/>
<path d="M117.688 32.3174H124.813V39.4424H117.688V32.3174Z" fill="#313030"/>
<path d="M174.688 89.3174H181.812V96.4424H174.688V89.3174Z" fill="#313030"/>
<path d="M156.875 53.6924H164V60.8174H156.875V53.6924Z" fill="#313030"/>
<path d="M50 53.6924H57.125V60.8174H50V53.6924Z" fill="#313030"/>
<path d="M156.875 153.442H164V160.567H156.875V153.442Z" fill="#313030"/>
<path d="M50 153.442H57.125V160.567H50V153.442Z" fill="#313030"/>
<path d="M106.58 103.567C104.088 103.648 101.704 104.598 99.8401 106.254C97.9764 107.91 96.7516 110.166 96.3782 112.63C96.0048 115.095 96.5065 117.613 97.7961 119.746C99.0857 121.879 101.082 123.493 103.438 124.308V132.067H110.563V124.283C112.976 123.438 115.006 121.753 116.281 119.537C117.556 117.32 117.992 114.718 117.509 112.207C117.026 109.696 115.657 107.441 113.651 105.855C111.644 104.269 109.135 103.457 106.58 103.567ZM110.563 114.116C110.581 114.584 110.508 115.05 110.346 115.489C110.184 115.929 109.937 116.332 109.62 116.675C109.302 117.019 108.92 117.297 108.495 117.493C108.07 117.689 107.61 117.799 107.143 117.817C106.674 117.836 106.207 117.761 105.768 117.599C105.328 117.436 104.925 117.188 104.581 116.87C104.063 116.392 103.699 115.771 103.534 115.086C103.369 114.4 103.411 113.682 103.655 113.02C103.899 112.359 104.333 111.785 104.903 111.37C105.473 110.956 106.154 110.72 106.858 110.692H107C107.921 110.692 108.806 111.047 109.47 111.685C110.134 112.323 110.526 113.192 110.563 114.112V114.116Z" fill="#313030"/>
<path d="M124.813 93.5354V89.3174C124.813 84.5932 122.936 80.0625 119.595 76.722C116.255 73.3816 111.724 71.5049 107 71.5049C102.276 71.5049 97.7452 73.3816 94.4047 76.722C91.0642 80.0625 89.1875 84.5932 89.1875 89.3174V93.5354C87.1109 94.2696 85.3118 95.6274 84.0364 97.4231C82.7611 99.2189 82.0716 101.365 82.0625 103.567V132.067C82.0625 134.902 83.1885 137.62 85.1928 139.625C87.1971 141.629 89.9155 142.755 92.75 142.755H121.25C124.085 142.755 126.803 141.629 128.807 139.625C130.812 137.62 131.938 134.902 131.938 132.067V103.567C131.928 101.365 131.239 99.2189 129.964 97.4231C128.688 95.6274 126.889 94.2696 124.813 93.5354ZM96.3125 89.3174C96.3125 86.4829 97.4385 83.7645 99.4428 81.7602C101.447 79.7559 104.166 78.6299 107 78.6299C109.835 78.6299 112.553 79.7559 114.557 81.7602C116.562 83.7645 117.688 86.4829 117.688 89.3174V92.8799H96.3125V89.3174ZM124.813 132.067C124.813 133.012 124.437 133.918 123.769 134.586C123.101 135.255 122.195 135.63 121.25 135.63H92.75C91.8052 135.63 90.899 135.255 90.2309 134.586C89.5628 133.918 89.1875 133.012 89.1875 132.067V103.567C89.1875 102.623 89.5628 101.716 90.2309 101.048C90.899 100.38 91.8052 100.005 92.75 100.005H121.25C122.195 100.005 123.101 100.38 123.769 101.048C124.437 101.716 124.813 102.623 124.813 103.567V132.067Z" fill="#313030"/>
<path d="M203.188 139.192C201.6 139.199 200.035 139.564 198.61 140.261L190.416 132.067H156.875V124.942H174.688V117.817H156.875V110.692H175.528L195.788 100.561C197.564 102.261 199.873 103.296 202.324 103.491C204.775 103.685 207.218 103.026 209.239 101.626C211.26 100.227 212.736 98.1713 213.416 95.8085C214.096 93.4457 213.939 90.9205 212.971 88.6601C212.004 86.3998 210.285 84.5432 208.106 83.4045C205.927 82.2658 203.421 81.915 201.013 82.4114C198.605 82.9078 196.442 84.2209 194.891 86.1285C193.339 88.0362 192.495 90.4212 192.5 92.8799C192.517 93.3133 192.561 93.7452 192.632 94.1731L173.847 103.567H156.875V96.4424H167.563V89.3174H156.875V82.1924H172.6L184.356 70.4362C185.783 71.1339 187.349 71.4993 188.938 71.5049C191.051 71.5049 193.118 70.8781 194.875 69.7037C196.633 68.5294 198.003 66.8602 198.811 64.9073C199.62 62.9544 199.832 60.8055 199.42 58.7324C199.007 56.6592 197.989 54.7549 196.495 53.2602C195 51.7655 193.096 50.7476 191.023 50.3353C188.949 49.9229 186.8 50.1345 184.848 50.9434C182.895 51.7523 181.226 53.1222 180.051 54.8797C178.877 56.6373 178.25 58.7036 178.25 60.8174C178.256 62.4044 178.622 63.9695 179.319 65.3952L169.65 75.0674H156.875C156.869 70.345 154.991 65.8176 151.652 62.4783C148.312 59.139 143.785 57.2606 139.063 57.2549V48.0423L159.422 27.6861C160.848 28.3834 162.413 28.7487 164 28.7549C166.114 28.7549 168.18 28.1281 169.938 26.9537C171.695 25.7794 173.065 24.1102 173.874 22.1573C174.683 20.2044 174.895 18.0555 174.482 15.9824C174.07 13.9092 173.052 12.0049 171.557 10.5102C170.063 9.01551 168.158 7.99763 166.085 7.58525C164.012 7.17287 161.863 7.38452 159.91 8.19343C157.957 9.00234 156.288 10.3722 155.114 12.1297C153.939 13.8873 153.313 15.9536 153.313 18.0674C153.319 19.6544 153.684 21.2195 154.381 22.6452L131.938 45.089V57.2549H124.813V46.5674H117.688V57.2549H110.563V31.6619C112.939 30.8215 114.943 29.1679 116.218 26.9933C117.494 24.8187 117.96 22.2632 117.534 19.7783C117.107 17.2935 115.816 15.0394 113.889 13.4144C111.961 11.7894 109.521 10.8981 107 10.8981C104.479 10.8981 102.039 11.7894 100.111 13.4144C98.1838 15.0394 96.8928 17.2935 96.4664 19.7783C96.0401 22.2632 96.5059 24.8187 97.7816 26.9933C99.0572 29.1679 101.061 30.8215 103.438 31.6619V57.2549H96.3125V46.5674H89.1875V57.2549H82.0625V30.8425L66.7438 15.5238C67.4415 14.097 67.8069 12.5306 67.8125 10.9424C67.8125 8.8286 67.1857 6.76228 66.0113 5.00473C64.837 3.24718 63.1678 1.87734 61.2149 1.06843C59.2621 0.259514 57.1131 0.0478653 55.04 0.460245C52.9668 0.872625 51.0625 1.89051 49.5678 3.38519C48.0731 4.87986 47.0552 6.78419 46.6429 8.85736C46.2305 10.9305 46.4421 13.0794 47.251 15.0323C48.06 16.9852 49.4298 18.6544 51.1874 19.8287C52.9449 21.0031 55.0112 21.6299 57.125 21.6299C58.7121 21.6237 60.2771 21.2584 61.7028 20.5611L74.9375 33.7923V57.2549C70.2151 57.2606 65.6877 59.139 62.3484 62.4783C59.0091 65.8176 57.1307 70.345 57.125 75.0674H44.3499L34.6813 65.3952C35.3785 63.9695 35.7439 62.4044 35.75 60.8174C35.75 58.7036 35.1232 56.6373 33.9488 54.8797C32.7745 53.1222 31.1053 51.7523 29.1524 50.9434C27.1995 50.1345 25.0507 49.9229 22.9775 50.3353C20.9043 50.7476 19 51.7655 17.5053 53.2602C16.0106 54.7549 14.9927 56.6592 14.5804 58.7324C14.168 60.8055 14.3796 62.9544 15.1885 64.9073C15.9975 66.8602 17.3673 68.5294 19.1248 69.7037C20.8824 70.8781 22.9487 71.5049 25.0625 71.5049C26.6496 71.4988 28.2146 71.1334 29.6403 70.4362L41.3966 82.1924H57.125V89.3174H34.4604L15.8 104.864C14.2707 104.025 12.5568 103.579 10.8125 103.567C8.69872 103.567 6.6324 104.194 4.87485 105.369C3.1173 106.543 1.74745 108.212 0.938542 110.165C0.129631 112.118 -0.0820174 114.267 0.330362 116.34C0.742742 118.413 1.76063 120.317 3.2553 121.812C4.74998 123.307 6.65431 124.325 8.72748 124.737C10.8007 125.149 12.9495 124.938 14.9024 124.129C16.8553 123.32 18.5245 121.95 19.6988 120.193C20.8732 118.435 21.5 116.369 21.5 114.255C21.5024 112.825 21.2152 111.41 20.6557 110.094L37.0396 96.4424H57.125V103.567H46.4375V110.692H57.125V117.817H25.0625V124.942H57.125V132.067H37.4066L23.0497 153.599C22.5377 153.509 22.0197 153.456 21.5 153.442C19.0216 153.42 16.6109 154.251 14.6734 155.797C12.736 157.343 11.3899 159.508 10.8616 161.93C10.3334 164.352 10.6551 166.881 11.7727 169.093C12.8903 171.306 14.7357 173.066 16.9984 174.077C19.2611 175.089 21.8031 175.29 24.197 174.648C26.5908 174.005 28.6904 172.558 30.1426 170.55C31.5949 168.541 32.3111 166.094 32.171 163.619C32.0309 161.145 31.0428 158.794 29.3731 156.962L41.2184 139.192H57.125C57.1307 143.915 59.0091 148.442 62.3484 151.781C65.6877 155.121 70.2151 156.999 74.9375 157.005V180.468L61.7028 193.699C60.2771 193.001 58.7121 192.636 57.125 192.63C55.0112 192.63 52.9449 193.257 51.1874 194.431C49.4298 195.605 48.06 197.275 47.251 199.227C46.4421 201.18 46.2305 203.329 46.6429 205.402C47.0552 207.476 48.0731 209.38 49.5678 210.875C51.0625 212.369 52.9668 213.387 55.04 213.8C57.1131 214.212 59.2621 214 61.2149 213.191C63.1678 212.382 64.837 211.013 66.0113 209.255C67.1857 207.498 67.8125 205.431 67.8125 203.317C67.8064 201.73 67.441 200.165 66.7438 198.74L82.0625 183.421V157.005H89.1875V178.38H96.3125V157.005H103.438V187.479L125.076 201.016C124.495 203.512 124.816 206.133 125.983 208.415C127.15 210.697 129.087 212.491 131.451 213.48C133.815 214.47 136.454 214.59 138.898 213.819C141.342 213.049 143.434 211.438 144.804 209.271C146.173 207.105 146.731 204.524 146.379 201.986C146.026 199.447 144.786 197.116 142.879 195.404C140.971 193.693 138.519 192.713 135.957 192.637C133.395 192.562 130.89 193.396 128.884 194.992L110.563 183.531V157.005H117.688V167.692H124.813V157.005H131.938V185.505H157.531C158.371 187.882 160.025 189.885 162.199 191.161C164.374 192.437 166.929 192.902 169.414 192.476C171.899 192.05 174.153 190.759 175.778 188.831C177.403 186.904 178.294 184.464 178.294 181.942C178.294 179.421 177.403 176.981 175.778 175.054C174.153 173.126 171.899 171.835 169.414 171.409C166.929 170.983 164.374 171.448 162.199 172.724C160.025 174 158.371 176.003 157.531 178.38H139.063V157.005C143.785 156.999 148.312 155.121 151.652 151.781C154.991 148.442 156.869 143.915 156.875 139.192H187.463L193.569 145.302C192.872 146.728 192.506 148.293 192.5 149.88C192.5 151.994 193.127 154.06 194.301 155.818C195.476 157.575 197.145 158.945 199.098 159.754C201.05 160.563 203.199 160.774 205.273 160.362C207.346 159.95 209.25 158.932 210.745 157.437C212.239 155.942 213.257 154.038 213.67 151.965C214.082 149.892 213.87 147.743 213.061 145.79C212.253 143.837 210.883 142.168 209.125 140.994C207.368 139.819 205.301 139.192 203.188 139.192ZM203.188 89.3174C203.892 89.3174 204.581 89.5263 205.167 89.9178C205.753 90.3092 206.209 90.8656 206.479 91.5166C206.748 92.1676 206.819 92.8839 206.682 93.5749C206.544 94.266 206.205 94.9008 205.707 95.399C205.208 95.8972 204.574 96.2365 203.883 96.374C203.191 96.5114 202.475 96.4409 201.824 96.1712C201.173 95.9016 200.617 95.445 200.225 94.8591C199.834 94.2733 199.625 93.5845 199.625 92.8799C199.625 91.9351 200 91.0289 200.668 90.3608C201.337 89.6927 202.243 89.3174 203.188 89.3174ZM188.938 57.2549C189.642 57.2549 190.331 57.4638 190.917 57.8553C191.503 58.2467 191.959 58.8031 192.229 59.4541C192.498 60.1051 192.569 60.8214 192.432 61.5124C192.294 62.2035 191.955 62.8382 191.457 63.3365C190.958 63.8347 190.324 64.174 189.633 64.3114C188.941 64.4489 188.225 64.3784 187.574 64.1087C186.923 63.8391 186.367 63.3825 185.975 62.7966C185.584 62.2108 185.375 61.522 185.375 60.8174C185.375 59.8726 185.75 58.9664 186.418 58.2983C187.087 57.6302 187.993 57.2549 188.938 57.2549ZM164 14.5049C164.705 14.5049 165.393 14.7138 165.979 15.1053C166.565 15.4967 167.022 16.0531 167.291 16.7041C167.561 17.355 167.632 18.0713 167.494 18.7624C167.357 19.4535 167.017 20.0882 166.519 20.5865C166.021 21.0847 165.386 21.424 164.695 21.5614C164.004 21.6989 163.288 21.6284 162.637 21.3587C161.986 21.0891 161.429 20.6325 161.038 20.0466C160.646 19.4608 160.438 18.772 160.438 18.0674C160.438 17.1226 160.813 16.2164 161.481 15.5483C162.149 14.8802 163.055 14.5049 164 14.5049ZM107 18.0674C107.705 18.0674 108.393 18.2763 108.979 18.6678C109.565 19.0592 110.022 19.6156 110.291 20.2666C110.561 20.9175 110.632 21.6338 110.494 22.3249C110.357 23.016 110.017 23.6507 109.519 24.149C109.021 24.6472 108.386 24.9865 107.695 25.1239C107.004 25.2614 106.288 25.1909 105.637 24.9212C104.986 24.6516 104.429 24.195 104.038 23.6091C103.646 23.0233 103.438 22.3345 103.438 21.6299C103.438 20.6851 103.813 19.7789 104.481 19.1108C105.149 18.4427 106.055 18.0674 107 18.0674ZM53.5625 10.9424C53.5625 10.2378 53.7714 9.54902 54.1629 8.96317C54.5543 8.37732 55.1107 7.92071 55.7617 7.65107C56.4127 7.38143 57.129 7.31088 57.82 7.44834C58.5111 7.5858 59.1459 7.9251 59.6441 8.42332C60.1423 8.92155 60.4816 9.55632 60.6191 10.2474C60.7565 10.9384 60.686 11.6547 60.4163 12.3057C60.1467 12.9567 59.6901 13.513 59.1042 13.9045C58.5184 14.296 57.8296 14.5049 57.125 14.5049C56.1802 14.5049 55.274 14.1296 54.6059 13.4615C53.9378 12.7934 53.5625 11.8872 53.5625 10.9424ZM21.5 60.8174C21.5 60.1128 21.7089 59.424 22.1004 58.8382C22.4918 58.2523 23.0482 57.7957 23.6992 57.5261C24.3502 57.2564 25.0665 57.1859 25.7575 57.3234C26.4486 57.4608 27.0833 57.8001 27.5816 58.2983C28.0798 58.7966 28.4191 59.4313 28.5566 60.1224C28.694 60.8134 28.6235 61.5297 28.3538 62.1807C28.0842 62.8317 27.6276 63.3881 27.0417 63.7795C26.4559 64.171 25.7671 64.3799 25.0625 64.3799C24.1177 64.3799 23.2115 64.0046 22.5434 63.3365C21.8753 62.6684 21.5 61.7622 21.5 60.8174ZM10.8125 117.817C10.1079 117.817 9.41914 117.608 8.83329 117.217C8.24744 116.826 7.79082 116.269 7.52118 115.618C7.25155 114.967 7.181 114.251 7.31846 113.56C7.45592 112.869 7.79521 112.234 8.29344 111.736C8.79166 111.238 9.42644 110.898 10.1175 110.761C10.8086 110.623 11.5249 110.694 12.1758 110.964C12.8268 111.233 13.3832 111.69 13.7746 112.276C14.1661 112.862 14.375 113.55 14.375 114.255C14.375 115.2 13.9997 116.106 13.3316 116.774C12.6635 117.442 11.7573 117.817 10.8125 117.817ZM21.5 167.692C20.7954 167.692 20.1066 167.483 19.5208 167.092C18.9349 166.701 18.4783 166.144 18.2087 165.493C17.939 164.842 17.8685 164.126 18.006 163.435C18.1434 162.744 18.4827 162.109 18.9809 161.611C19.4792 161.113 20.1139 160.773 20.805 160.636C21.4961 160.498 22.2124 160.569 22.8633 160.839C23.5143 161.108 24.0707 161.565 24.4621 162.151C24.8536 162.737 25.0625 163.425 25.0625 164.13C25.0625 165.075 24.6872 165.981 24.0191 166.649C23.351 167.317 22.4448 167.692 21.5 167.692ZM57.125 206.88C56.4204 206.88 55.7316 206.671 55.1458 206.28C54.5599 205.888 54.1033 205.332 53.8337 204.681C53.564 204.03 53.4935 203.313 53.631 202.622C53.7684 201.931 54.1077 201.297 54.6059 200.798C55.1042 200.3 55.7389 199.961 56.43 199.823C57.1211 199.686 57.8374 199.756 58.4883 200.026C59.1393 200.296 59.6957 200.752 60.0871 201.338C60.4786 201.924 60.6875 202.613 60.6875 203.317C60.6875 204.262 60.3122 205.168 59.6441 205.837C58.976 206.505 58.0698 206.88 57.125 206.88ZM135.5 199.755C136.205 199.755 136.893 199.964 137.479 200.355C138.065 200.747 138.522 201.303 138.791 201.954C139.061 202.605 139.132 203.321 138.994 204.012C138.857 204.703 138.517 205.338 138.019 205.837C137.521 206.335 136.886 206.674 136.195 206.811C135.504 206.949 134.788 206.878 134.137 206.609C133.486 206.339 132.929 205.882 132.538 205.297C132.146 204.711 131.938 204.022 131.938 203.317C131.938 202.373 132.313 201.466 132.981 200.798C133.649 200.13 134.555 199.755 135.5 199.755ZM167.563 178.38C168.267 178.38 168.956 178.589 169.542 178.98C170.128 179.372 170.584 179.928 170.854 180.579C171.123 181.23 171.194 181.946 171.057 182.637C170.919 183.328 170.58 183.963 170.082 184.461C169.583 184.96 168.949 185.299 168.258 185.436C167.566 185.574 166.85 185.503 166.199 185.234C165.548 184.964 164.992 184.507 164.6 183.922C164.209 183.336 164 182.647 164 181.942C164 180.998 164.375 180.091 165.043 179.423C165.712 178.755 166.618 178.38 167.563 178.38ZM149.75 139.192C149.75 142.027 148.624 144.745 146.62 146.75C144.615 148.754 141.897 149.88 139.063 149.88H74.9375C72.103 149.88 69.3846 148.754 67.3803 146.75C65.376 144.745 64.25 142.027 64.25 139.192V75.0674C64.25 72.2329 65.376 69.5145 67.3803 67.5102C69.3846 65.5059 72.103 64.3799 74.9375 64.3799H139.063C141.897 64.3799 144.615 65.5059 146.62 67.5102C148.624 69.5145 149.75 72.2329 149.75 75.0674V139.192ZM203.188 153.442C202.483 153.442 201.794 153.233 201.208 152.842C200.622 152.451 200.166 151.894 199.896 151.243C199.627 150.592 199.556 149.876 199.693 149.185C199.831 148.494 200.17 147.859 200.668 147.361C201.167 146.863 201.801 146.523 202.493 146.386C203.184 146.248 203.9 146.319 204.551 146.589C205.202 146.858 205.758 147.315 206.15 147.901C206.541 148.487 206.75 149.175 206.75 149.88C206.75 150.825 206.375 151.731 205.707 152.399C205.038 153.067 204.132 153.442 203.188 153.442Z" fill="#313030"/>
</svg>
