<svg width="28" height="28" viewBox="0 0 28 28" fill="none" xmlns="http://www.w3.org/2000/svg">
<path d="M18.6857 9.83545C20.4579 9.83545 22.1574 10.5394 23.4105 11.7925C24.6636 13.0456 25.3675 14.7451 25.3675 16.5173V24.3127H20.913V16.5173C20.913 15.9266 20.6783 15.36 20.2606 14.9423C19.8429 14.5247 19.2764 14.29 18.6857 14.29C18.095 14.29 17.5285 14.5247 17.1108 14.9423C16.6931 15.36 16.4585 15.9266 16.4585 16.5173V24.3127H12.0039V16.5173C12.0039 14.7451 12.7079 13.0456 13.961 11.7925C15.214 10.5394 16.9136 9.83545 18.6857 9.83545Z" fill="white"/>
<path d="M3.0957 10.9492H7.55025V24.3129H3.0957V10.9492Z" fill="white"/>
<path d="M5.32298 7.60811C6.55306 7.60811 7.55025 6.61093 7.55025 5.38084C7.55025 4.15075 6.55306 3.15356 5.32298 3.15356C4.09289 3.15356 3.0957 4.15075 3.0957 5.38084C3.0957 6.61093 4.09289 7.60811 5.32298 7.60811Z" fill="white"/>
</svg>
