<svg width="76" height="76" viewBox="0 0 76 76" fill="none" xmlns="http://www.w3.org/2000/svg">
<path d="M72.2954 37.9029C72.4962 38.0506 72.739 38.1301 72.9883 38.1299C73.1724 38.1293 73.3539 38.0862 73.5186 38.0039C73.7116 37.9057 73.8736 37.7561 73.9869 37.5715C74.1001 37.3869 74.1601 37.1746 74.1602 36.958V29.9268C74.1603 29.7427 74.1169 29.5612 74.0337 29.397C73.9505 29.2329 73.8297 29.0907 73.6812 28.982L38.5249 3.2007C38.3241 3.05298 38.0813 2.9733 37.832 2.9733C37.5827 2.9733 37.34 3.05298 37.1392 3.2007L1.98291 28.982C1.83438 29.0907 1.71358 29.2329 1.63035 29.397C1.54712 29.5612 1.5038 29.7427 1.50391 29.9268V36.958C1.50364 37.1747 1.56348 37.3872 1.67678 37.5718C1.79007 37.7565 1.95238 37.9061 2.14564 38.0041C2.33891 38.102 2.55555 38.1444 2.77147 38.1265C2.98739 38.1086 3.19411 38.0312 3.36865 37.9029L8.53516 34.1148V70.9424H2.67578C2.36498 70.9424 2.06691 71.0659 1.84714 71.2856C1.62737 71.5054 1.50391 71.8035 1.50391 72.1143C1.50391 72.4251 1.62737 72.7232 1.84714 72.9429C2.06691 73.1627 2.36498 73.2862 2.67578 73.2862H72.9883C73.2991 73.2862 73.5972 73.1627 73.8169 72.9429C74.0367 72.7232 74.1602 72.4251 74.1602 72.1143C74.1602 71.8035 74.0367 71.5054 73.8169 71.2856C73.5972 71.0659 73.2991 70.9424 72.9883 70.9424H67.1289V34.1148L72.2954 37.9029ZM19.082 70.9424H14.3945V52.1924H19.082V70.9424ZM36.6602 70.9424H26.1133V66.2549H36.6602V70.9424ZM49.5508 70.9424H39.0039V66.2549H49.5508V70.9424ZM50.7227 63.9112H24.9414V62.7393H50.7227V63.9112ZM28.457 56.8799V45.1612H47.207V56.8799H28.457ZM42.5195 59.2237V60.3955H33.1445V59.2237H42.5195ZM61.2695 70.9424H56.582V52.1924H61.2695V70.9424ZM64.7852 70.9424H63.6133V52.1924C63.6125 51.5711 63.3653 50.9754 62.9259 50.536C62.4866 50.0967 61.8909 49.8495 61.2695 49.8487H56.582C55.9607 49.8495 55.365 50.0967 54.9256 50.536C54.4863 50.9754 54.2391 51.5711 54.2383 52.1924V70.9424H51.8945V66.2549C52.2053 66.2549 52.5034 66.1314 52.7232 65.9117C52.9429 65.6919 53.0664 65.3938 53.0664 65.083V61.5674C53.0664 61.2566 52.9429 60.9585 52.7232 60.7388C52.5034 60.519 52.2053 60.3955 51.8945 60.3955H44.8633V59.2237H48.3789C48.6897 59.2237 48.9878 59.1002 49.2075 58.8804C49.4273 58.6607 49.5508 58.3626 49.5508 58.0518V43.9893C49.5508 43.6785 49.4273 43.3804 49.2075 43.1606C48.9878 42.9409 48.6897 42.8174 48.3789 42.8174H27.2852C26.9744 42.8174 26.6763 42.9409 26.4565 43.1606C26.2367 43.3804 26.1133 43.6785 26.1133 43.9893V58.0518C26.1133 58.3626 26.2367 58.6607 26.4565 58.8804C26.6763 59.1002 26.9744 59.2237 27.2852 59.2237H30.8008V60.3955H23.7695C23.4587 60.3955 23.1607 60.519 22.9409 60.7388C22.7211 60.9585 22.5977 61.2566 22.5977 61.5674V65.083C22.5977 65.3938 22.7211 65.6919 22.9409 65.9117C23.1607 66.1314 23.4587 66.2549 23.7695 66.2549V70.9424H21.4258V52.1924C21.425 51.5711 21.1778 50.9754 20.7384 50.536C20.2991 50.0967 19.7034 49.8495 19.082 49.8487H14.3945C13.7732 49.8495 13.1775 50.0967 12.7381 50.536C12.2988 50.9754 12.0516 51.5711 12.0508 52.1924V70.9424H10.8789V32.395L37.832 12.6299L64.7852 32.395V70.9424ZM38.5249 10.232C38.324 10.0844 38.0813 10.0049 37.832 10.0049C37.5828 10.0049 37.3401 10.0844 37.1392 10.232L3.84766 34.645V30.52L37.832 5.59865L71.8164 30.52V34.645L38.5249 10.232Z" fill="#FE360B"/>
<path d="M58.9258 62.7393C59.573 62.7393 60.0977 62.2146 60.0977 61.5674C60.0977 60.9202 59.573 60.3955 58.9258 60.3955C58.2786 60.3955 57.7539 60.9202 57.7539 61.5674C57.7539 62.2146 58.2786 62.7393 58.9258 62.7393Z" fill="#FE360B"/>
<path d="M58.9258 58.0518C59.573 58.0518 60.0977 57.5271 60.0977 56.8799C60.0977 56.2327 59.573 55.708 58.9258 55.708C58.2786 55.708 57.7539 56.2327 57.7539 56.8799C57.7539 57.5271 58.2786 58.0518 58.9258 58.0518Z" fill="#FE360B"/>
<path d="M58.9258 67.4268C59.573 67.4268 60.0977 66.9021 60.0977 66.2549C60.0977 65.6077 59.573 65.083 58.9258 65.083C58.2786 65.083 57.7539 65.6077 57.7539 66.2549C57.7539 66.9021 58.2786 67.4268 58.9258 67.4268Z" fill="#FE360B"/>
<path d="M16.7383 62.7393C17.3855 62.7393 17.9102 62.2146 17.9102 61.5674C17.9102 60.9202 17.3855 60.3955 16.7383 60.3955C16.0911 60.3955 15.5664 60.9202 15.5664 61.5674C15.5664 62.2146 16.0911 62.7393 16.7383 62.7393Z" fill="#FE360B"/>
<path d="M16.7383 58.0518C17.3855 58.0518 17.9102 57.5271 17.9102 56.8799C17.9102 56.2327 17.3855 55.708 16.7383 55.708C16.0911 55.708 15.5664 56.2327 15.5664 56.8799C15.5664 57.5271 16.0911 58.0518 16.7383 58.0518Z" fill="#FE360B"/>
<path d="M16.7383 67.4268C17.3855 67.4268 17.9102 66.9021 17.9102 66.2549C17.9102 65.6077 17.3855 65.083 16.7383 65.083C16.0911 65.083 15.5664 65.6077 15.5664 66.2549C15.5664 66.9021 16.0911 67.4268 16.7383 67.4268Z" fill="#FE360B"/>
<path d="M27.8093 31.2224L23.1218 28.8787C22.9431 28.7894 22.7446 28.7472 22.545 28.7561C22.3455 28.7651 22.1515 28.8249 21.9816 28.93C21.8117 29.035 21.6714 29.1817 21.5741 29.3561C21.4769 29.5306 21.4258 29.727 21.4258 29.9268V38.3315C20.7222 38.0827 19.9576 38.0643 19.2429 38.2789C18.5281 38.4936 17.9001 38.9301 17.45 39.5253C16.9998 40.1206 16.7507 40.8436 16.7387 41.5898C16.7268 42.336 16.9526 43.0667 17.3836 43.676C17.8145 44.2853 18.4281 44.7417 19.1357 44.9791C19.8432 45.2165 20.6079 45.2225 21.3192 44.9964C22.0304 44.7703 22.6512 44.3237 23.0917 43.7212C23.5322 43.1188 23.7696 42.3918 23.7695 41.6455V31.8229L26.761 33.3186C27.0387 33.4548 27.3589 33.4757 27.6518 33.3768C27.9448 33.2779 28.1868 33.0672 28.3251 32.7906C28.4634 32.514 28.4868 32.194 28.3902 31.9003C28.2936 31.6065 28.0848 31.3629 27.8093 31.2224ZM20.2539 42.8174C20.0221 42.8174 19.7956 42.7487 19.6028 42.6199C19.4101 42.4912 19.2599 42.3081 19.1712 42.094C19.0825 41.8799 19.0593 41.6442 19.1046 41.4169C19.1498 41.1896 19.2614 40.9808 19.4253 40.8169C19.5892 40.653 19.798 40.5414 20.0253 40.4962C20.2526 40.451 20.4882 40.4742 20.7024 40.5629C20.9165 40.6516 21.0995 40.8018 21.2283 40.9945C21.3571 41.1872 21.4258 41.4138 21.4258 41.6455C21.4254 41.9562 21.3019 42.2541 21.0822 42.4738C20.8625 42.6935 20.5646 42.8171 20.2539 42.8174Z" fill="#FE360B"/>
<path d="M37.832 26.6127C37.1284 26.364 36.3639 26.3456 35.6491 26.5602C34.9343 26.7748 34.3064 27.2113 33.8562 27.8066C33.406 28.4018 33.1569 29.1249 33.145 29.8711C33.133 30.6173 33.3589 31.3479 33.7898 31.9573C34.2207 32.5666 34.8344 33.023 35.5419 33.2603C36.2495 33.4977 37.0142 33.5038 37.7254 33.2776C38.4366 33.0515 39.0574 32.6049 39.498 32.0025C39.9385 31.4001 40.1759 30.6731 40.1758 29.9268V23.6198L43.1673 25.1155C43.3051 25.1858 43.4554 25.228 43.6096 25.2399C43.7638 25.2518 43.9188 25.233 44.0658 25.1847C44.2127 25.1364 44.3486 25.0594 44.4656 24.9583C44.5827 24.8572 44.6785 24.734 44.7477 24.5956C44.8169 24.4573 44.858 24.3067 44.8687 24.1524C44.8793 23.9981 44.8594 23.8432 44.8099 23.6967C44.7604 23.5501 44.6824 23.4148 44.5804 23.2986C44.4784 23.1823 44.3544 23.0874 44.2155 23.0193L39.528 20.6756C39.3494 20.5862 39.1508 20.544 38.9513 20.553C38.7517 20.562 38.5578 20.6218 38.3879 20.7268C38.2179 20.8318 38.0777 20.9785 37.9804 21.153C37.8831 21.3275 37.832 21.5239 37.832 21.7237V26.6127ZM36.6602 31.0987C36.4284 31.0987 36.2018 31.0299 36.0091 30.9012C35.8164 30.7724 35.6662 30.5894 35.5775 30.3753C35.4888 30.1611 35.4656 29.9255 35.5108 29.6982C35.556 29.4709 35.6676 29.262 35.8315 29.0982C35.9954 28.9343 36.2042 28.8227 36.4315 28.7774C36.6589 28.7322 36.8945 28.7554 37.1086 28.8441C37.3227 28.9328 37.5058 29.083 37.6345 29.2757C37.7633 29.4685 37.832 29.695 37.832 29.9268C37.8317 30.2375 37.7081 30.5354 37.4884 30.7551C37.2687 30.9747 36.9708 31.0983 36.6602 31.0987Z" fill="#FE360B"/>
<path d="M44.2472 27.7579C44.0772 27.8629 43.937 28.0097 43.8397 28.1842C43.7424 28.3587 43.6914 28.5551 43.6914 28.7549V33.644C42.9878 33.3952 42.2232 33.3768 41.5085 33.5914C40.7937 33.806 40.1658 34.2426 39.7156 34.8378C39.2654 35.433 39.0163 36.1561 39.0044 36.9023C38.9924 37.6485 39.2183 38.3791 39.6492 38.9885C40.0801 39.5978 40.6937 40.0542 41.4013 40.2916C42.1088 40.5289 42.8736 40.535 43.5848 40.3089C44.296 40.0827 44.9168 39.6361 45.3573 39.0337C45.7979 38.4313 46.0353 37.7043 46.0351 36.958V30.651L49.0266 32.1467C49.1644 32.217 49.3148 32.2593 49.469 32.2711C49.6232 32.283 49.7782 32.2642 49.9251 32.2159C50.072 32.1676 50.2079 32.0907 50.325 31.9896C50.442 31.8885 50.5379 31.7652 50.6071 31.6269C50.6762 31.4885 50.7173 31.3379 50.728 31.1836C50.7387 31.0293 50.7187 30.8744 50.6692 30.7279C50.6198 30.5813 50.5418 30.446 50.4398 30.3298C50.3378 30.2135 50.2138 30.1186 50.0749 30.0505L45.3874 27.7068C45.2087 27.6174 45.0102 27.5752 44.8106 27.5842C44.6111 27.5931 44.4171 27.6529 44.2472 27.7579ZM42.5195 38.1299C42.2878 38.1299 42.0612 38.0612 41.8685 37.9324C41.6758 37.8036 41.5256 37.6206 41.4369 37.4065C41.3482 37.1923 41.325 36.9567 41.3702 36.7294C41.4154 36.5021 41.527 36.2933 41.6909 36.1294C41.8548 35.9655 42.0636 35.8539 42.2909 35.8087C42.5182 35.7634 42.7538 35.7866 42.968 35.8753C43.1821 35.964 43.3651 36.1142 43.4939 36.307C43.6227 36.4997 43.6914 36.7262 43.6914 36.958C43.6911 37.2687 43.5675 37.5666 43.3478 37.7863C43.1281 38.006 42.8302 38.1295 42.5195 38.1299Z" fill="#FE360B"/>
</svg>
