<svg width="76" height="70" viewBox="0 0 76 70" fill="none" xmlns="http://www.w3.org/2000/svg">
<path d="M70.9138 44.3155H57.7831V33.7881C57.7831 33.1806 57.2907 32.6881 56.6832 32.6881C56.0757 32.6881 55.5832 33.1806 55.5832 33.7881V44.3155H43.0587L42.4735 39.1157C42.9888 38.2925 43.2607 37.3434 43.2607 36.3664C43.2607 34.9382 42.6638 33.558 41.6229 32.5799C40.5669 31.5874 39.1854 31.0909 37.7342 31.181C35.1212 31.3423 33.0332 33.4362 32.8775 36.0515C32.8128 37.1381 33.0806 38.1948 33.6552 39.1166L33.07 44.3153H20.5457V26.037C20.5457 25.3585 21.0977 24.8065 21.7762 24.8065H54.3527C55.0312 24.8065 55.5832 25.3585 55.5832 26.037V28.6549C55.5832 29.2624 56.0757 29.7549 56.6832 29.7549C57.2907 29.7549 57.7831 29.2624 57.7831 28.6549V26.037C57.7831 24.1455 56.2442 22.6066 54.3527 22.6066H54.1797V16.1388C54.1797 11.8361 52.5033 7.78856 49.4588 4.74078C46.4136 1.69886 42.3671 0.0235443 38.0646 0.0235443C29.1786 0.0235443 21.9494 7.25281 21.9494 16.1388V22.6066H21.7763C19.8848 22.6066 18.3459 24.1455 18.3459 26.037V44.3155H5.2151C2.65072 44.3155 0.564453 46.4017 0.564453 48.9661V64.5856C0.564453 67.15 2.65072 69.2363 5.2151 69.2363H12.8254C13.4329 69.2363 13.9254 68.7438 13.9254 68.1363C13.9254 67.5288 13.4329 67.0363 12.8254 67.0363H5.2151C3.86376 67.0363 2.76438 65.937 2.76438 64.5856V48.9661C2.76438 47.6148 3.86376 46.5154 5.2151 46.5154H70.9138C72.2651 46.5154 73.3645 47.6148 73.3645 48.9661V64.5856C73.3645 65.937 72.2651 67.0363 70.9138 67.0363H17.9586C17.3511 67.0363 16.8586 67.5288 16.8586 68.1363C16.8586 68.7438 17.3511 69.2363 17.9586 69.2363H70.9138C73.4782 69.2363 75.5644 67.15 75.5644 64.5856V48.9661C75.5644 46.4017 73.4782 44.3155 70.9138 44.3155ZM44.7728 22.6066H31.3561V16.1388C31.3561 12.4398 34.3655 9.43044 38.0644 9.43044C39.8556 9.43044 41.5402 10.1277 42.8066 11.3928C44.0745 12.662 44.7728 14.3474 44.7728 16.1386V22.6066ZM24.1492 16.1388C24.1492 8.46585 30.3915 2.22347 38.0644 2.22347C41.7798 2.22347 45.2742 3.67015 47.9031 6.29642C50.5319 8.92798 51.9797 12.4234 51.9797 16.1388V22.6066H46.9727V16.1388C46.9727 13.7603 46.0459 11.5227 44.3621 9.83728C42.6793 8.15639 40.4427 7.23066 38.0644 7.23066C33.1524 7.23066 29.1562 11.2269 29.1562 16.1389V22.6067H24.1492V16.1388ZM35.5432 37.9861C35.1976 37.4487 35.0353 36.8251 35.0736 36.1825C35.1619 34.7006 36.39 33.4682 37.8703 33.3768C38.7096 33.3249 39.5076 33.6109 40.1164 34.183C40.7253 34.7553 41.0607 35.5307 41.0607 36.3664C41.0607 36.9433 40.8968 37.5024 40.5862 37.9839C40.3389 38.368 40.2293 38.8277 40.2785 39.2833L40.8449 44.3155H35.2839L35.8507 39.2782C35.8997 38.8258 35.7894 38.3654 35.5432 37.9861Z" fill="#FE360B"/>
</svg>
