<svg width="67" height="76" viewBox="0 0 67 76" fill="none" xmlns="http://www.w3.org/2000/svg">
<path d="M64.4898 52.8167C64.1904 52.6438 63.8778 52.5138 63.5592 52.4243V23.834C63.8777 23.7445 64.1904 23.6159 64.4898 23.4431C66.4277 22.3242 67.0939 19.8375 65.9752 17.8997C64.8565 15.9618 62.3697 15.2955 60.4318 16.4143C60.0843 16.615 59.7784 16.8602 59.5156 17.1376L37.4678 5.53447C37.526 5.26128 37.5573 4.97827 37.5573 4.68794C37.5573 2.45039 35.7368 0.629883 33.4993 0.629883C31.2617 0.629883 29.4412 2.45039 29.4412 4.68794C29.4412 4.97827 29.4724 5.26128 29.5307 5.53447L7.48292 17.1376C7.22013 16.8601 6.91427 16.6148 6.56681 16.4143C4.62926 15.2955 2.14225 15.9618 1.0234 17.8997C-0.0954472 19.8375 0.570764 22.3244 2.50875 23.4431C2.80817 23.6159 3.12076 23.7445 3.43937 23.834V52.4243C3.12076 52.5138 2.80831 52.6438 2.50875 52.8166C0.57091 53.9354 -0.0953008 56.4221 1.0234 58.36C1.77428 59.6604 3.14098 60.3882 4.54459 60.3882C5.23248 60.3882 5.92931 60.2133 6.56681 59.8453C6.91427 59.6446 7.22013 59.3994 7.48292 59.122L29.5307 70.7251C29.4726 70.9983 29.4412 71.2813 29.4412 71.5717C29.4412 73.8094 31.2617 75.6299 33.4993 75.6299C35.7368 75.6299 37.5573 73.8094 37.5573 71.5718C37.5573 71.2815 37.5261 70.9985 37.4678 70.7253L59.5156 59.1221C59.7784 59.3997 60.0843 59.6449 60.4318 59.8455C61.0693 60.2136 61.7658 60.3883 62.454 60.3883C63.8574 60.3883 65.2244 59.6604 65.9752 58.3601C67.094 56.4223 66.4278 53.9354 64.4898 52.8167ZM59.976 53.1237L55.7527 50.2954C57.7363 46.6815 58.866 42.5353 58.866 38.1299C58.866 33.8464 57.782 29.6662 55.7566 25.9617L59.9765 23.1357C60.3923 23.457 60.8639 23.6914 61.3621 23.8315V52.4275C60.8637 52.5677 60.3921 52.8023 59.976 53.1237ZM10.3565 37.0312C10.7798 28.008 16.389 20.3191 24.2637 16.8829C23.2572 17.8784 22.3149 19.0438 21.4536 20.3725C18.5378 24.8704 16.861 30.7504 16.6855 37.0312H10.3565ZM7.02252 53.1237C6.60651 52.8023 6.13483 52.5677 5.63649 52.4275V23.8315C6.13468 23.6914 6.60621 23.457 7.02208 23.1357L11.2458 25.9644C9.26227 29.5783 8.13258 33.7245 8.13258 38.1299C8.13258 42.4594 9.19489 46.5992 11.2331 50.3041L7.02252 53.1237ZM34.5979 61.2331V50.4226C40.5292 49.8967 45.2661 45.1598 45.792 39.2285H48.1153C47.9426 45.0867 46.3909 50.5427 43.7012 54.692C41.2058 58.5415 38.0073 60.8278 34.5979 61.2331ZM45.792 37.0312C45.2661 31.1 40.5292 26.3631 34.5979 25.8372V15.0267C38.0073 15.4321 41.2058 17.7183 43.7012 21.5678C46.3911 25.7172 47.9426 31.173 48.1153 37.0312H45.792ZM23.2974 21.5678C25.7927 17.7183 28.9912 15.4321 32.4006 15.0267V25.8372C26.4693 26.3631 21.7325 31.1 21.2066 37.0312H18.8832C19.0559 31.173 20.6076 25.7171 23.2974 21.5678ZM21.2054 39.2285C21.3715 41.0966 21.9578 42.9041 22.929 44.5107C23.243 45.03 23.9185 45.1964 24.4376 44.8827C24.9569 44.5687 25.1234 43.8935 24.8095 43.3742C23.8561 41.7971 23.3523 39.9836 23.3523 38.13C23.3523 32.5349 27.9042 27.9831 33.4993 27.9831C39.0944 27.9831 43.6463 32.5349 43.6463 38.13C43.6463 43.7251 39.0944 48.277 33.4993 48.277C31.5483 48.277 29.6519 47.7214 28.0153 46.6701C27.5048 46.3421 26.8253 46.49 26.4972 47.0005C26.1693 47.511 26.3172 48.1907 26.8278 48.5187C28.5103 49.5996 30.4183 50.2479 32.4006 50.4237V61.2332C28.9912 60.8278 25.7927 58.5416 23.2974 54.6921C20.6075 50.5427 19.0559 45.0869 18.8832 39.2287H21.2054V39.2285ZM45.5448 55.8873C48.4606 51.3894 50.1374 45.5093 50.3129 39.2285H56.6419C56.2186 48.2518 50.6094 55.9406 42.7347 59.3769C43.7413 58.3813 44.6837 57.2159 45.5448 55.8873ZM61.5304 18.3171C62.951 17.4875 64.6918 18.8257 64.2582 20.4104C63.841 22.0005 61.6634 22.2872 60.8492 20.8591C60.3313 20.0032 60.6538 18.7994 61.5304 18.3171ZM58.4941 19.0831C58.3344 19.83 58.3839 20.6234 58.6671 21.3683L54.6188 24.0792C54.0216 23.182 53.3661 22.3189 52.6523 21.4979C52.254 21.0398 51.5601 20.9915 51.1023 21.3895C50.6444 21.7876 50.5959 22.4815 50.9941 22.9395C54.413 26.8724 56.3964 31.8397 56.6423 37.0312H50.3132C50.1377 30.7504 48.4608 24.8706 45.5451 20.3725C44.6772 19.0334 43.727 17.8601 42.7115 16.8596C44.367 17.5787 45.9446 18.4963 47.4184 19.6058C47.9034 19.9707 48.592 19.8735 48.9569 19.3888C49.3218 18.9041 49.2247 18.2152 48.74 17.8503C44.6116 14.7428 39.743 13.0036 34.5979 12.7868V8.5938C35.3114 8.39282 35.9456 8.00142 36.4422 7.47788L58.4941 19.0831ZM33.4993 2.82715C34.5254 2.82715 35.3601 3.66196 35.3601 4.68794C35.3601 5.71406 34.5254 6.54888 33.4993 6.54888C32.4732 6.54888 31.6385 5.71406 31.6385 4.68794C31.6385 3.66196 32.4732 2.82715 33.4993 2.82715ZM30.5564 7.47788C31.053 8.00142 31.6871 8.39282 32.4006 8.5938V12.7885C24.0588 13.1459 16.7484 17.5501 12.3869 24.0842L8.33151 21.3684C8.61466 20.6234 8.66403 19.8302 8.5045 19.0833L30.5564 7.47788ZM2.74034 20.4104C2.3069 18.8256 4.04772 17.4875 5.46818 18.3173C6.89611 19.1316 6.60958 21.3094 5.01935 21.7263C4.05841 22.005 2.97941 21.3819 2.74034 20.4104ZM5.46818 57.9426C4.04889 58.772 2.30646 57.4351 2.74034 55.8494C3.15797 54.2584 5.33575 53.9733 6.14933 55.4007C6.6673 56.2566 6.34474 57.4604 5.46818 57.9426ZM8.5045 57.1767C8.66417 56.4297 8.61466 55.6364 8.33151 54.8915L12.3752 52.1834C12.7717 52.7764 13.1952 53.3559 13.6451 53.921C13.8619 54.1935 14.1821 54.3354 14.5052 54.3354C14.745 54.3354 14.9866 54.2572 15.1887 54.0962C15.6635 53.7183 15.7419 53.0272 15.3639 52.5524C12.299 48.7027 10.5797 44.1164 10.3556 39.2285H16.6854C16.8609 45.5093 18.5378 51.3892 21.4534 55.8873C22.3148 57.2159 23.2569 58.3813 24.2636 59.3769C22.3045 58.5264 20.4601 57.4053 18.7939 56.0357C18.3254 55.6504 17.633 55.718 17.2474 56.1867C16.8622 56.6555 16.9297 57.3478 17.3985 57.733C21.6367 61.2171 26.9264 63.2339 32.4004 63.4727V67.6661C31.6868 67.8671 31.0527 68.2585 30.5561 68.782L8.5045 57.1767ZM33.4993 73.4326C32.4732 73.4326 31.6385 72.5978 31.6385 71.5718C31.6385 70.5457 32.4732 69.7109 33.4993 69.7109C34.5254 69.7109 35.3601 70.5457 35.3601 71.5718C35.3601 72.5978 34.5254 73.4326 33.4993 73.4326ZM36.4422 68.7819C35.9456 68.2584 35.3114 67.8669 34.5979 67.666V63.4712C42.9398 63.1138 50.2502 58.7096 54.6116 52.1755L58.6671 54.8914C58.3839 55.6364 58.3345 56.4296 58.4941 57.1765L36.4422 68.7819ZM64.0723 57.2615C63.258 58.6894 61.0804 58.4029 60.6635 56.8126C60.3235 55.6733 61.2778 54.437 62.4639 54.4695C63.8708 54.4526 64.796 56.0496 64.0723 57.2615Z" fill="#FE360B"/>
<path d="M28.6037 35.9439C31.5774 34.0019 35.42 34.0019 38.3938 35.9439C38.5793 36.0649 38.7876 36.1227 38.9935 36.1227C39.3521 36.1227 39.7037 35.9474 39.9143 35.6247C40.2461 35.1167 40.1033 34.436 39.5951 34.1042C35.8919 31.6857 31.1056 31.6857 27.4024 34.1042C26.8942 34.436 26.7515 35.1168 27.0832 35.6247C27.415 36.1327 28.0958 36.2755 28.6037 35.9439Z" fill="#FE360B"/>
<path d="M37.6968 38.5855C35.3035 36.5208 31.694 36.5208 29.3009 38.5855C28.8415 38.9819 28.7904 39.6755 29.1868 40.135C29.583 40.5945 30.2768 40.6455 30.7363 40.2492C32.3113 38.8906 34.6865 38.8906 36.2615 40.2492C36.4691 40.4284 36.7244 40.516 36.9787 40.516C37.2869 40.516 37.5936 40.3868 37.811 40.135C38.2074 39.6755 38.1561 38.9817 37.6968 38.5855Z" fill="#FE360B"/>
<path d="M33.4988 45.0803C34.3978 45.0803 35.1266 44.3515 35.1266 43.4526C35.1266 42.5536 34.3978 41.8248 33.4988 41.8248C32.5999 41.8248 31.8711 42.5536 31.8711 43.4526C31.8711 44.3515 32.5999 45.0803 33.4988 45.0803Z" fill="#FE360B"/>
</svg>
