<svg width="75" height="76" viewBox="0 0 75 76" fill="none" xmlns="http://www.w3.org/2000/svg">
<path d="M32.3379 10.0905C33.1469 10.0905 33.8027 9.43471 33.8027 8.62568C33.7255 6.68257 30.95 6.68315 30.873 8.62568C30.873 9.43457 31.5289 10.0905 32.3379 10.0905Z" fill="#FE360B"/>
<path d="M73.5352 32.7962H64.6729V8.62566C64.6729 7.81662 64.017 7.16081 63.208 7.16081H38.9282C38.1192 7.16081 37.4634 7.81662 37.4634 8.62566C37.4634 9.43469 38.1192 10.0905 38.9282 10.0905H61.7432V32.7963H52.8809C52.0718 32.7963 51.416 33.4521 51.416 34.2612V45.7111H2.92969V10.0905H25.7446C26.5537 10.0905 27.2095 9.43469 27.2095 8.62566C27.2095 7.81662 26.5537 7.16081 25.7446 7.16081H1.46484C0.655811 7.16081 0 7.81662 0 8.62566V53.0353C0 53.8443 0.655811 54.5002 1.46484 54.5002H23.6083V59.31H17.6514C16.8423 59.31 16.1865 59.9658 16.1865 60.7748V66.6342C16.1865 67.4432 16.8423 68.099 17.6514 68.099H47.0215C47.8305 68.099 48.4863 67.4432 48.4863 66.6342V60.7748C48.4863 59.9658 47.8305 59.31 47.0215 59.31H41.0644V54.5002H51.416V66.6342C51.416 67.4432 52.0718 68.099 52.8809 68.099H73.5352C74.3442 68.099 75 67.4432 75 66.6342V34.2612C75 33.4521 74.3442 32.7962 73.5352 32.7962ZM45.5566 65.1692H19.1162V62.2395H45.5566V65.1692ZM38.1347 59.3098H26.538V54.5H38.1347V59.3098ZM2.92969 51.5705V48.6408H51.416V51.5705H2.92969ZM72.0703 65.1692H54.3457V35.7258H72.0703V65.1692Z" fill="#FE360B"/>
<path d="M63.208 62.2395C66.4792 62.2395 69.1406 59.5782 69.1406 56.3069C68.8147 48.4364 57.6001 48.4388 57.2754 56.3069C57.2754 59.5782 59.9367 62.2395 63.208 62.2395ZM63.208 53.304C64.8639 53.304 66.2109 54.651 66.2109 56.3069C66.046 60.2907 60.3694 60.2895 60.2051 56.3069C60.2051 54.6512 61.5521 53.304 63.208 53.304Z" fill="#FE360B"/>
<path d="M63.207 47.4446C65.6302 47.4446 67.6016 45.4732 67.6016 43.0501C67.3602 37.2201 59.053 37.2219 58.8125 43.0501C58.8125 45.4732 60.7839 47.4446 63.207 47.4446ZM63.207 41.5852C64.0147 41.5852 64.6719 42.2424 64.6719 43.0501C64.5915 44.9933 61.8223 44.9929 61.7422 43.0501C61.7422 42.2424 62.3993 41.5852 63.207 41.5852Z" fill="#FE360B"/>
<path d="M27.9226 30.3566C25.1494 29.3188 22.0064 31.5247 22.0633 34.4992C22.0633 36.9224 24.0346 38.8937 26.4578 38.8937C28.8809 38.8937 30.8523 36.9224 30.8523 34.4992V22.5679L39.678 20.2683V27.2936C36.9048 26.2558 33.7618 28.4617 33.8186 31.4362C33.8186 33.8594 35.79 35.8308 38.2132 35.8308C40.6363 35.8308 42.6077 33.8594 42.6077 31.4362V18.3729C42.6291 17.4433 41.6676 16.7002 40.7734 16.9554L29.018 20.0185C28.3858 20.1768 27.9165 20.7842 27.9225 21.436V30.3566H27.9226ZM26.4578 35.9639C25.6501 35.9639 24.9929 35.3068 24.9929 34.4991C25.0734 32.5558 27.8425 32.5564 27.9226 34.4991C27.9226 35.3069 27.2655 35.9639 26.4578 35.9639ZM38.2132 32.9009C37.4055 32.9009 36.7483 32.2438 36.7483 31.4361C36.8287 29.4928 39.5979 29.4934 39.678 31.4361C39.678 32.2438 39.0209 32.9009 38.2132 32.9009Z" fill="#FE360B"/>
</svg>
