<svg width="76" height="76" viewBox="0 0 76 76" fill="none" xmlns="http://www.w3.org/2000/svg">
<path d="M32.207 13.0205H34.5508V15.3643H32.207V13.0205Z" fill="#FE360B"/>
<path d="M62.6758 41.1455H65.0195V43.4892H62.6758V41.1455Z" fill="#FE360B"/>
<path d="M41.582 59.8955H43.9258V62.2392H41.582V59.8955Z" fill="#FE360B"/>
<path d="M32.207 63.4111H34.5508V65.7549H32.207V63.4111Z" fill="#FE360B"/>
<path d="M13.457 36.458H15.8008V38.8018H13.457V36.458Z" fill="#FE360B"/>
<path d="M41.582 13.0205H43.9258V15.3643H41.582V13.0205Z" fill="#FE360B"/>
<path d="M60.332 31.7705H62.6758V34.1143H60.332V31.7705Z" fill="#FE360B"/>
<path d="M54.4727 20.0518H56.8164V22.3955H54.4727V20.0518Z" fill="#FE360B"/>
<path d="M19.3164 20.0518H21.6602V22.3955H19.3164V20.0518Z" fill="#FE360B"/>
<path d="M54.4727 52.8642H56.8164V55.208H54.4727V52.8642Z" fill="#FE360B"/>
<path d="M19.3164 52.8642H21.6602V55.208H19.3164V52.8642Z" fill="#FE360B"/>
<path d="M37.9286 36.458C37.109 36.4844 36.3246 36.7971 35.7116 37.3417C35.0985 37.8863 34.6956 38.6285 34.5728 39.4392C34.45 40.25 34.615 41.0781 35.0392 41.7799C35.4634 42.4816 36.1201 43.0126 36.895 43.2806V45.833H39.2388V43.2724C40.0327 42.9944 40.7003 42.4402 41.1198 41.711C41.5392 40.9818 41.6826 40.1261 41.5238 39.3C41.3649 38.4738 40.9145 37.7323 40.2545 37.2106C39.5946 36.6889 38.7691 36.4218 37.9286 36.458ZM39.2388 39.9279C39.2449 40.0817 39.2206 40.2353 39.1674 40.3797C39.1142 40.5242 39.033 40.6567 38.9285 40.7698C38.8241 40.8829 38.6983 40.9742 38.5585 41.0387C38.4187 41.1032 38.2676 41.1394 38.1138 41.1455C37.9597 41.1515 37.806 41.1271 37.6614 41.0736C37.5168 41.0201 37.3842 40.9386 37.2712 40.8338C37.1008 40.6765 36.981 40.4723 36.9267 40.2469C36.8725 40.0215 36.8863 39.785 36.9665 39.5675C37.0467 39.35 37.1896 39.1611 37.3771 39.0248C37.5646 38.8885 37.7884 38.8109 38.02 38.8017H38.0669C38.3697 38.8015 38.6609 38.9185 38.8794 39.1282C39.0979 39.338 39.2267 39.6241 39.2388 39.9267V39.9279Z" fill="#FE360B"/>
<path d="M43.9258 33.158V31.7705C43.9258 30.2165 43.3085 28.7262 42.2096 27.6273C41.1108 26.5285 39.6204 25.9111 38.0664 25.9111C36.5124 25.9111 35.022 26.5285 33.9232 27.6273C32.8244 28.7262 32.207 30.2165 32.207 31.7705V33.158C31.5239 33.3995 30.9321 33.8462 30.5126 34.4369C30.0931 35.0276 29.8663 35.7335 29.8633 36.458V45.833C29.8633 46.7654 30.2337 47.6596 30.893 48.3189C31.5523 48.9782 32.4465 49.3486 33.3789 49.3486H42.7539C43.6863 49.3486 44.5805 48.9782 45.2398 48.3189C45.8991 47.6596 46.2695 46.7654 46.2695 45.833V36.458C46.2665 35.7335 46.0397 35.0276 45.6202 34.4369C45.2007 33.8462 44.6089 33.3995 43.9258 33.158ZM34.5508 31.7705C34.5508 30.8381 34.9212 29.9439 35.5805 29.2846C36.2398 28.6253 37.134 28.2549 38.0664 28.2549C38.9988 28.2549 39.893 28.6253 40.5523 29.2846C41.2116 29.9439 41.582 30.8381 41.582 31.7705V32.9424H34.5508V31.7705ZM43.9258 45.833C43.9258 46.1438 43.8023 46.4419 43.5826 46.6616C43.3628 46.8814 43.0647 47.0049 42.7539 47.0049H33.3789C33.0681 47.0049 32.77 46.8814 32.5503 46.6616C32.3305 46.4419 32.207 46.1438 32.207 45.833V36.458C32.207 36.1472 32.3305 35.8491 32.5503 35.6294C32.77 35.4096 33.0681 35.2861 33.3789 35.2861H42.7539C43.0647 35.2861 43.3628 35.4096 43.5826 35.6294C43.8023 35.8491 43.9258 36.1472 43.9258 36.458V45.833Z" fill="#FE360B"/>
<path d="M69.707 48.1768C69.185 48.1788 68.6702 48.299 68.2012 48.5283L65.5059 45.833H54.4727V43.4893H60.332V41.1455H54.4727V38.8018H60.6086L67.273 35.4689C67.8571 36.0284 68.6166 36.3689 69.4229 36.4328C70.2291 36.4967 71.0327 36.28 71.6976 35.8195C72.3625 35.359 72.8479 34.683 73.0717 33.9057C73.2954 33.1285 73.2438 32.2978 72.9254 31.5543C72.6071 30.8108 72.0417 30.2 71.3249 29.8255C70.608 29.4509 69.7838 29.3355 68.9917 29.4988C68.1995 29.6621 67.4881 30.094 66.9778 30.7215C66.4676 31.349 66.1897 32.1336 66.1914 32.9424C66.1969 33.0849 66.2114 33.227 66.2348 33.3678L60.0555 36.458H54.4727V34.1143H57.9883V31.7705H54.4727V29.4268H59.6453L63.5125 25.5596C63.9818 25.7891 64.4971 25.9093 65.0195 25.9111C65.7149 25.9111 66.3946 25.7049 66.9727 25.3186C67.5508 24.9323 68.0015 24.3833 68.2675 23.7409C68.5336 23.0985 68.6033 22.3916 68.4676 21.7096C68.332 21.0277 67.9971 20.4012 67.5055 19.9096C67.0138 19.4179 66.3874 19.0831 65.7054 18.9474C65.0234 18.8118 64.3166 18.8814 63.6742 19.1475C63.0318 19.4136 62.4827 19.8642 62.0964 20.4423C61.7101 21.0205 61.5039 21.7002 61.5039 22.3955C61.5059 22.9176 61.6261 23.4324 61.8555 23.9014L58.675 27.083H54.4727C54.4708 25.5296 53.8529 24.0403 52.7544 22.9418C51.656 21.8434 50.1667 21.2255 48.6133 21.2236V18.1932L55.3105 11.4971C55.7795 11.7264 56.2943 11.8466 56.8164 11.8486C57.5117 11.8486 58.1914 11.6424 58.7696 11.2561C59.3477 10.8698 59.7983 10.3208 60.0644 9.67837C60.3305 9.03597 60.4001 8.3291 60.2645 7.64713C60.1288 6.96517 59.794 6.33874 59.3023 5.84707C58.8107 5.3554 58.1842 5.02057 57.5023 4.88492C56.8203 4.74927 56.1134 4.81889 55.471 5.08498C54.8286 5.35107 54.2796 5.80168 53.8933 6.37982C53.507 6.95796 53.3008 7.63767 53.3008 8.333C53.3028 8.85505 53.423 9.36987 53.6523 9.83885L46.2695 17.2217V21.2236H43.9258V17.708H41.582V21.2236H39.2383V12.8049C40.0202 12.5284 40.6792 11.9845 41.0988 11.2692C41.5184 10.5538 41.6716 9.71319 41.5314 8.89581C41.3912 8.07843 40.9665 7.33694 40.3324 6.8024C39.6983 6.26786 38.8957 5.97468 38.0664 5.97468C37.2371 5.97468 36.4345 6.26786 35.8004 6.8024C35.1663 7.33694 34.7417 8.07843 34.6014 8.89581C34.4612 9.71319 34.6144 10.5538 35.034 11.2692C35.4537 11.9845 36.1126 12.5284 36.8945 12.8049V21.2236H34.5508V17.708H32.207V21.2236H29.8633V12.5353L24.8242 7.49628C25.0537 7.02694 25.1739 6.5117 25.1758 5.98924C25.1758 5.29392 24.9696 4.61421 24.5833 4.03607C24.197 3.45793 23.6479 3.00732 23.0055 2.74123C22.3631 2.47514 21.6563 2.40552 20.9743 2.54117C20.2923 2.67682 19.6659 3.01165 19.1742 3.50332C18.6826 3.99499 18.3477 4.62142 18.2121 5.30338C18.0764 5.98535 18.1461 6.69222 18.4121 7.33462C18.6782 7.97701 19.1288 8.52608 19.707 8.91238C20.2851 9.29868 20.9648 9.50487 21.6602 9.50487C22.1822 9.50285 22.697 9.38266 23.166 9.15331L27.5195 13.5057V21.2236C25.9661 21.2255 24.4768 21.8434 23.3784 22.9418C22.2799 24.0403 21.662 25.5296 21.6602 27.083H17.4578L14.2773 23.9014C14.5067 23.4324 14.6269 22.9176 14.6289 22.3955C14.6289 21.7002 14.4227 21.0205 14.0364 20.4423C13.6501 19.8642 13.1011 19.4136 12.4587 19.1475C11.8163 18.8814 11.1094 18.8118 10.4274 18.9474C9.74545 19.0831 9.11903 19.4179 8.62736 19.9096C8.13569 20.4012 7.80086 21.0277 7.66521 21.7096C7.52956 22.3916 7.59918 23.0985 7.86527 23.7409C8.13136 24.3833 8.58196 24.9323 9.16011 25.3186C9.73825 25.7049 10.418 25.9111 11.1133 25.9111C11.6353 25.9091 12.1502 25.7889 12.6191 25.5596L16.4863 29.4268H21.6602V31.7705H14.2047L8.06641 36.8846C7.56335 36.6086 6.99956 36.462 6.42578 36.458C5.73046 36.458 5.05075 36.6642 4.47261 37.0505C3.89446 37.4368 3.44386 37.9859 3.17777 38.6283C2.91168 39.2707 2.84206 39.9775 2.97771 40.6595C3.11336 41.3415 3.44819 41.9679 3.93986 42.4595C4.43153 42.9512 5.05795 43.286 5.73992 43.4217C6.42188 43.5574 7.12876 43.4877 7.77115 43.2216C8.41355 42.9555 8.96262 42.5049 9.34892 41.9268C9.73522 41.3487 9.94141 40.6689 9.94141 39.9736C9.9422 39.5033 9.84772 39.0377 9.66367 38.6049L15.0531 34.1143H21.6602V36.458H18.1445V38.8018H21.6602V41.1455H11.1133V43.4893H21.6602V45.833H15.1738L10.4512 52.9158C10.2828 52.8861 10.1124 52.8689 9.94141 52.8643C9.12614 52.8568 8.33315 53.1303 7.69583 53.6387C7.05851 54.1472 6.61572 54.8596 6.44194 55.6562C6.26817 56.4528 6.374 57.2849 6.74164 58.0126C7.10928 58.7403 7.7163 59.3192 8.46062 59.652C9.20493 59.9847 10.0411 60.051 10.8286 59.8397C11.616 59.6284 12.3067 59.1524 12.7844 58.4917C13.2621 57.831 13.4977 57.0259 13.4516 56.2119C13.4055 55.3979 13.0805 54.6246 12.5313 54.0221L16.4277 48.1768H21.6602C21.662 49.7302 22.2799 51.2195 23.3784 52.3179C24.4768 53.4163 25.9661 54.0343 27.5195 54.0361V61.7541L23.166 66.1064C22.697 65.8771 22.1822 65.7569 21.6602 65.7549C20.9648 65.7549 20.2851 65.9611 19.707 66.3474C19.1288 66.7337 18.6782 67.2827 18.4121 67.9251C18.1461 68.5675 18.0764 69.2744 18.2121 69.9564C18.3477 70.6383 18.6826 71.2648 19.1742 71.7564C19.6659 72.2481 20.2923 72.5829 20.9743 72.7186C21.6563 72.8542 22.3631 72.7846 23.0055 72.5185C23.6479 72.2524 24.197 71.8018 24.5833 71.2237C24.9696 70.6455 25.1758 69.9658 25.1758 69.2705C25.1738 68.7485 25.0536 68.2336 24.8242 67.7646L29.8633 62.7256V54.0361H32.207V61.0674H34.5508V54.0361H36.8945V64.0603L44.0125 68.5135C43.8212 69.3345 43.9269 70.1968 44.3107 70.9473C44.6946 71.6978 45.3319 72.2882 46.1096 72.6136C46.8873 72.939 47.7551 72.9785 48.5591 72.7251C49.3631 72.4716 50.0514 71.9416 50.5018 71.2291C50.9523 70.5165 51.1359 69.6674 51.0199 68.8324C50.904 67.9974 50.4961 67.2304 49.8685 66.6675C49.241 66.1046 48.4344 65.7821 47.5917 65.7573C46.7491 65.7325 45.9248 66.0069 45.2652 66.5318L39.2383 62.7619V54.0361H41.582V57.5518H43.9258V54.0361H46.2695V63.4111H54.6883C54.9647 64.193 55.5087 64.852 56.224 65.2716C56.9393 65.6913 57.78 65.8445 58.5973 65.7043C59.4147 65.564 60.1562 65.1393 60.6908 64.5053C61.2253 63.8712 61.5185 63.0686 61.5185 62.2393C61.5185 61.4099 61.2253 60.6073 60.6908 59.9732C60.1562 59.3392 59.4147 58.9145 58.5973 58.7743C57.78 58.634 56.9393 58.7873 56.224 59.2069C55.5087 59.6265 54.9647 60.2855 54.6883 61.0674H48.6133V54.0361C50.1667 54.0343 51.656 53.4163 52.7544 52.3179C53.8529 51.2195 54.4708 49.7302 54.4727 48.1768H64.5344L66.543 50.1865C66.3136 50.6555 66.1934 51.1703 66.1914 51.6924C66.1914 52.3877 66.3976 53.0674 66.7839 53.6456C67.1702 54.2237 67.7193 54.6743 68.3617 54.9404C69.0041 55.2065 69.7109 55.2761 70.3929 55.1405C71.0749 55.0048 71.7013 54.67 72.193 54.1783C72.6846 53.6866 73.0195 53.0602 73.1551 52.3782C73.2908 51.6963 73.2211 50.9894 72.955 50.347C72.689 49.7046 72.2383 49.1555 71.6602 48.7692C71.0821 48.3829 70.4024 48.1768 69.707 48.1768ZM69.707 31.7705C69.9388 31.7705 70.1654 31.8392 70.3581 31.968C70.5508 32.0968 70.701 32.2798 70.7897 32.4939C70.8784 32.7081 70.9016 32.9437 70.8564 33.171C70.8112 33.3983 70.6996 33.6071 70.5357 33.771C70.3718 33.9349 70.163 34.0465 69.9357 34.0917C69.7083 34.137 69.4727 34.1137 69.2586 34.025C69.0444 33.9364 68.8614 33.7861 68.7327 33.5934C68.6039 33.4007 68.5352 33.1742 68.5352 32.9424C68.5352 32.6316 68.6586 32.3335 68.8784 32.1137C69.0982 31.894 69.3962 31.7705 69.707 31.7705ZM65.0195 21.2236C65.2513 21.2236 65.4779 21.2924 65.6706 21.4211C65.8633 21.5499 66.0135 21.7329 66.1022 21.947C66.1909 22.1612 66.2141 22.3968 66.1689 22.6241C66.1237 22.8514 66.0121 23.0603 65.8482 23.2241C65.6843 23.388 65.4755 23.4996 65.2482 23.5449C65.0208 23.5901 64.7852 23.5669 64.5711 23.4782C64.3569 23.3895 64.1739 23.2393 64.0452 23.0466C63.9164 22.8538 63.8477 22.6273 63.8477 22.3955C63.8477 22.0847 63.9711 21.7866 64.1909 21.5669C64.4107 21.3471 64.7087 21.2236 65.0195 21.2236ZM56.8164 7.16112C57.0482 7.16112 57.2747 7.22985 57.4675 7.35862C57.6602 7.48738 57.8104 7.67041 57.8991 7.88454C57.9878 8.09867 58.011 8.3343 57.9658 8.56162C57.9205 8.78894 57.8089 8.99775 57.645 9.16164C57.4812 9.32553 57.2724 9.43714 57.045 9.48235C56.8177 9.52757 56.5821 9.50436 56.368 9.41567C56.1538 9.32697 55.9708 9.17677 55.842 8.98405C55.7133 8.79134 55.6445 8.56477 55.6445 8.333C55.6445 8.02219 55.768 7.72412 55.9878 7.50435C56.2075 7.28459 56.5056 7.16112 56.8164 7.16112ZM38.0664 8.333C38.2982 8.333 38.5248 8.40172 38.7175 8.53049C38.9102 8.65926 39.0604 8.84228 39.1491 9.05641C39.2378 9.27055 39.261 9.50617 39.2158 9.73349C39.1705 9.96081 39.0589 10.1696 38.8951 10.3335C38.7312 10.4974 38.5224 10.609 38.295 10.6542C38.0677 10.6994 37.8321 10.6762 37.618 10.5875C37.4038 10.4988 37.2208 10.3486 37.092 10.1559C36.9633 9.96322 36.8945 9.73665 36.8945 9.50487C36.8945 9.19407 37.018 8.896 37.2378 8.67623C37.4575 8.45646 37.7556 8.333 38.0664 8.333ZM20.4883 5.98924C20.4883 5.75747 20.557 5.5309 20.6858 5.33819C20.8145 5.14547 20.9976 4.99527 21.2117 4.90657C21.4258 4.81788 21.6615 4.79467 21.8888 4.83989C22.1161 4.8851 22.3249 4.99671 22.4888 5.1606C22.6527 5.32449 22.7643 5.5333 22.8095 5.76062C22.8547 5.98795 22.8315 6.22357 22.7428 6.4377C22.6541 6.65183 22.5039 6.83486 22.3112 6.96362C22.1185 7.09239 21.8919 7.16112 21.6602 7.16112C21.3494 7.16112 21.0513 7.03765 20.8315 6.81789C20.6117 6.59812 20.4883 6.30005 20.4883 5.98924ZM9.94141 22.3955C9.94141 22.1637 10.0101 21.9372 10.1389 21.7444C10.2677 21.5517 10.4507 21.4015 10.6648 21.3128C10.879 21.2241 11.1146 21.2009 11.3419 21.2461C11.5692 21.2914 11.778 21.403 11.9419 21.5669C12.1058 21.7307 12.2174 21.9396 12.2626 22.1669C12.3079 22.3942 12.2847 22.6298 12.196 22.844C12.1073 23.0581 11.9571 23.2411 11.7643 23.3699C11.5716 23.4986 11.3451 23.5674 11.1133 23.5674C10.8025 23.5674 10.5044 23.4439 10.2846 23.2241C10.0649 23.0044 9.94141 22.7063 9.94141 22.3955ZM6.42578 41.1455C6.19401 41.1455 5.96744 41.0768 5.77472 40.948C5.58201 40.8192 5.43181 40.6362 5.34311 40.4221C5.25442 40.208 5.23121 39.9723 5.27643 39.745C5.32164 39.5177 5.43325 39.3089 5.59714 39.145C5.76103 38.9811 5.96984 38.8695 6.19716 38.8243C6.42448 38.7791 6.66011 38.8023 6.87424 38.891C7.08837 38.9797 7.27139 39.1299 7.40016 39.3226C7.52893 39.5153 7.59766 39.7419 7.59766 39.9736C7.59766 40.2844 7.47419 40.5825 7.25442 40.8023C7.03465 41.022 6.73658 41.1455 6.42578 41.1455ZM9.94141 57.5518C9.70963 57.5518 9.48306 57.483 9.29035 57.3543C9.09764 57.2255 8.94743 57.0425 8.85874 56.8283C8.77004 56.6142 8.74683 56.3786 8.79205 56.1513C8.83727 55.9239 8.94888 55.7151 9.11277 55.5512C9.27666 55.3873 9.48547 55.2757 9.71279 55.2305C9.94011 55.1853 10.1757 55.2085 10.3899 55.2972C10.604 55.3859 10.787 55.5361 10.9158 55.7288C11.0446 55.9215 11.1133 56.1481 11.1133 56.3799C11.1133 56.6907 10.9898 56.9888 10.77 57.2085C10.5503 57.4283 10.2522 57.5518 9.94141 57.5518ZM21.6602 70.4424C21.4284 70.4424 21.2018 70.3736 21.0091 70.2449C20.8164 70.1161 20.6662 69.9331 20.5775 69.719C20.4888 69.5048 20.4656 69.2692 20.5108 69.0419C20.556 68.8146 20.6676 68.6058 20.8315 68.4419C20.9954 68.278 21.2042 68.1664 21.4315 68.1211C21.6589 68.0759 21.8945 68.0991 22.1086 68.1878C22.3227 68.2765 22.5058 68.4267 22.6345 68.6194C22.7633 68.8122 22.832 69.0387 22.832 69.2705C22.832 69.5813 22.7086 69.8794 22.4888 70.0992C22.269 70.3189 21.971 70.4424 21.6602 70.4424ZM47.4414 68.0986C47.6732 68.0986 47.8997 68.1674 48.0925 68.2961C48.2852 68.4249 48.4354 68.6079 48.5241 68.8221C48.6128 69.0362 48.636 69.2718 48.5908 69.4991C48.5455 69.7264 48.4339 69.9353 48.27 70.0992C48.1062 70.263 47.8974 70.3746 47.67 70.4199C47.4427 70.4651 47.2071 70.4419 46.993 70.3532C46.7788 70.2645 46.5958 70.1143 46.467 69.9216C46.3383 69.7289 46.2695 69.5023 46.2695 69.2705C46.2695 68.9597 46.393 68.6616 46.6128 68.4419C46.8325 68.2221 47.1306 68.0986 47.4414 68.0986ZM57.9883 61.0674C58.2201 61.0674 58.4466 61.1361 58.6393 61.2649C58.8321 61.3936 58.9823 61.5767 59.0709 61.7908C59.1596 62.0049 59.1829 62.2406 59.1376 62.4679C59.0924 62.6952 58.9808 62.904 58.8169 63.0679C58.653 63.2318 58.4442 63.3434 58.2169 63.3886C57.9896 63.4338 57.754 63.4106 57.5398 63.3219C57.3257 63.2332 57.1427 63.083 57.0139 62.8903C56.8851 62.6976 56.8164 62.471 56.8164 62.2393C56.8164 61.9285 56.9399 61.6304 57.1596 61.4106C57.3794 61.1908 57.6775 61.0674 57.9883 61.0674ZM52.1289 48.1768C52.1289 49.1092 51.7585 50.0034 51.0992 50.6627C50.4399 51.322 49.5457 51.6924 48.6133 51.6924H27.5195C26.5871 51.6924 25.6929 51.322 25.0336 50.6627C24.3743 50.0034 24.0039 49.1092 24.0039 48.1768V27.083C24.0039 26.1506 24.3743 25.2564 25.0336 24.5971C25.6929 23.9378 26.5871 23.5674 27.5195 23.5674H48.6133C49.5457 23.5674 50.4399 23.9378 51.0992 24.5971C51.7585 25.2564 52.1289 26.1506 52.1289 27.083V48.1768ZM69.707 52.8643C69.4753 52.8643 69.2487 52.7955 69.056 52.6668C68.8633 52.538 68.7131 52.355 68.6244 52.1408C68.5357 51.9267 68.5125 51.6911 68.5577 51.4638C68.6029 51.2364 68.7145 51.0276 68.8784 50.8637C69.0423 50.6998 69.2511 50.5882 69.4784 50.543C69.7057 50.4978 69.9414 50.521 70.1555 50.6097C70.3696 50.6984 70.5526 50.8486 70.6814 51.0413C70.8102 51.234 70.8789 51.4606 70.8789 51.6924C70.8789 52.0032 70.7554 52.3013 70.5357 52.521C70.3159 52.7408 70.0178 52.8643 69.707 52.8643Z" fill="#FE360B"/>
</svg>
