<svg width="22" height="23" viewBox="0 0 22 23" fill="none" xmlns="http://www.w3.org/2000/svg">
<g clip-path="url(#clip0_764_106)">
<path d="M5.5625 9.71546C5.5625 10.0735 5.85273 10.3638 6.21082 10.3638H15.6168C15.9749 10.3638 16.2651 10.0735 16.2651 9.71546C16.2651 9.35737 15.9749 9.06714 15.6168 9.06714H6.21082C5.85273 9.06714 5.5625 9.35737 5.5625 9.71546Z" fill="#FE360B"/>
<path d="M6.21082 12.6436H15.6168C15.9749 12.6436 16.2651 12.3533 16.2651 11.9952C16.2651 11.6372 15.9749 11.3469 15.6168 11.3469H6.21082C5.85273 11.3469 5.5625 11.6372 5.5625 11.9952C5.5625 12.3533 5.85273 12.6436 6.21082 12.6436Z" fill="#FE360B"/>
<path d="M6.21082 4.86377H9.40493C9.76302 4.86377 10.0532 4.57354 10.0532 4.21546C10.0532 3.85737 9.76302 3.56714 9.40493 3.56714H6.21082C5.85273 3.56714 5.5625 3.85737 5.5625 4.21546C5.5625 4.57354 5.85273 4.86377 6.21082 4.86377Z" fill="#FE360B"/>
<path d="M10.7707 17.9624H6.21082C5.85273 17.9624 5.5625 18.2526 5.5625 18.6107C5.5625 18.9688 5.85273 19.259 6.21082 19.259H10.7707C11.1288 19.259 11.419 18.9688 11.419 18.6107C11.419 18.2526 11.1288 17.9624 10.7707 17.9624Z" fill="#FE360B"/>
<path d="M10.7707 15.9553H6.21082C5.85273 15.9553 5.5625 16.2456 5.5625 16.6036C5.5625 16.9617 5.85273 17.252 6.21082 17.252H10.7707C11.1288 17.252 11.419 16.9617 11.419 16.6036C11.419 16.2456 11.1288 15.9553 10.7707 15.9553Z" fill="#FE360B"/>
<path d="M19.2386 5.58955L14.342 0.692815C14.2203 0.571219 14.0554 0.50293 13.8835 0.50293H3.22058C2.8625 0.50293 2.57227 0.79316 2.57227 1.15125V21.8546C2.57227 22.2127 2.8625 22.5029 3.22058 22.5029H18.7802C19.1383 22.5029 19.4285 22.2127 19.4285 21.8546V6.04799C19.4285 5.87604 19.3602 5.71115 19.2386 5.58955ZM14.3878 2.57236L17.3592 5.54374H14.3878V2.57236ZM18.1319 21.2063H3.8689V1.79956H13.0911V6.19206C13.0911 6.55015 13.3813 6.84037 13.7394 6.84037H18.1319V21.2063Z" fill="#FE360B"/>
<path d="M14.4051 15.5232C13.2469 15.5232 12.3047 16.4655 12.3047 17.6237C12.3047 18.7819 13.2469 19.7241 14.4051 19.7241C15.5633 19.7241 16.5055 18.7819 16.5055 17.6237C16.5055 16.4655 15.5633 15.5232 14.4051 15.5232ZM14.4051 18.4274C13.9619 18.4274 13.6013 18.0669 13.6013 17.6237C13.6013 17.1804 13.9619 16.8198 14.4051 16.8198C14.8483 16.8198 15.2089 17.1804 15.2089 17.6237C15.2089 18.0669 14.8483 18.4274 14.4051 18.4274Z" fill="#FE360B"/>
</g>
<defs>
<clipPath id="clip0_764_106">
<rect width="22" height="22" fill="white" transform="translate(0 0.50293)"/>
</clipPath>
</defs>
</svg>
