<svg width="25" height="25" viewBox="0 0 25 25" fill="none" xmlns="http://www.w3.org/2000/svg">
<path fill-rule="evenodd" clip-rule="evenodd" d="M12.2324 2.63281C8.36242 2.63281 5.23242 5.76281 5.23242 9.63281C5.23242 14.8828 12.2324 22.6328 12.2324 22.6328C12.2324 22.6328 19.2324 14.8828 19.2324 9.63281C19.2324 5.76281 16.1024 2.63281 12.2324 2.63281ZM7.23244 9.6328C7.23244 6.8728 9.47244 4.6328 12.2324 4.6328C14.9924 4.6328 17.2324 6.8728 17.2324 9.6328C17.2324 12.5128 14.3524 16.8228 12.2324 19.5128C10.1524 16.8428 7.23244 12.4828 7.23244 9.6328ZM9.73244 9.6328C9.73244 8.25209 10.8517 7.1328 12.2324 7.1328C13.1256 7.1328 13.9509 7.6093 14.3975 8.3828C14.8441 9.1563 14.8441 10.1093 14.3975 10.8828C13.9509 11.6563 13.1256 12.1328 12.2324 12.1328C10.8517 12.1328 9.73244 11.0135 9.73244 9.6328Z" fill="#FE360B"/>
</svg>
