<svg width="30" height="29" viewBox="0 0 30 29" fill="none" xmlns="http://www.w3.org/2000/svg">
<path fill-rule="evenodd" clip-rule="evenodd" d="M22.0142 18.8892C23.7875 19.475 25.6875 19.7917 27.6667 19.7917C28.5375 19.7917 29.25 20.5042 29.25 21.375V26.9167C29.25 27.7875 28.5375 28.5 27.6667 28.5C12.7992 28.5 0.75 16.4508 0.75 1.58333C0.75 0.7125 1.4625 0 2.33333 0H7.875C8.74583 0 9.45833 0.7125 9.45833 1.58333C9.45833 3.5625 9.775 5.4625 10.3608 7.23583C10.535 7.79 10.4083 8.4075 9.965 8.81917L6.48167 12.3183C8.76167 16.815 12.435 20.4725 16.9158 22.7525L20.3992 19.2692C20.7158 18.9683 21.1117 18.81 21.5233 18.81C21.6817 18.81 21.8558 18.8417 22.0142 18.8892ZM26.0833 14.25H29.25C29.25 6.38083 22.8692 0 15 0V3.16667C21.1275 3.16667 26.0833 8.1225 26.0833 14.25ZM19.75 14.25H22.9167C22.9167 9.88 19.37 6.33333 15 6.33333V9.5C17.6283 9.5 19.75 11.6217 19.75 14.25ZM6.33918 3.16667C6.45002 4.56 6.68752 5.9375 7.05168 7.25167L5.15168 9.1675C4.51835 7.25167 4.10668 5.25667 3.96418 3.16667H6.33918ZM20.0667 24.0825C21.9667 24.7317 23.9933 25.1433 26.0833 25.2858V22.895C24.69 22.8 23.3125 22.5625 21.9667 22.1825L20.0667 24.0825Z" fill="#FE360B"/>
</svg>
