<svg width="228" height="228" viewBox="0 0 228 228" fill="none" xmlns="http://www.w3.org/2000/svg">
<g clip-path="url(#clip0_102_5121)">
<path d="M114 28.5C111.378 28.5 109.25 26.372 109.25 23.75V4.75C109.25 2.128 111.378 0 114 0C116.622 0 118.75 2.128 118.75 4.75V23.75C118.75 26.372 116.622 28.5 114 28.5Z" fill="#FF634E"/>
<path d="M177.821 54.929C176.605 54.929 175.389 54.4635 174.458 53.542C172.605 51.6895 172.605 48.678 174.458 46.8255L187.891 33.3925C189.743 31.54 192.755 31.54 194.607 33.3925C196.46 35.245 196.46 38.2565 194.607 40.109L181.174 53.542C180.253 54.4635 179.037 54.929 177.821 54.929Z" fill="#FF634E"/>
<path d="M223.25 118.75H204.25C201.628 118.75 199.5 116.622 199.5 114C199.5 111.378 201.628 109.25 204.25 109.25H223.25C225.872 109.25 228 111.378 228 114C228 116.622 225.872 118.75 223.25 118.75Z" fill="#FF634E"/>
<path d="M191.254 196.004C190.038 196.004 188.822 195.538 187.891 194.617L174.458 181.184C172.605 179.332 172.605 176.32 174.458 174.467C176.31 172.615 179.322 172.615 181.174 174.467L194.607 187.9C196.46 189.753 196.46 192.764 194.607 194.617C193.686 195.538 192.47 196.004 191.254 196.004Z" fill="#FF634E"/>
<path d="M114 228C111.378 228 109.25 225.872 109.25 223.25V204.25C109.25 201.628 111.378 199.5 114 199.5C116.622 199.5 118.75 201.628 118.75 204.25V223.25C118.75 225.872 116.622 228 114 228Z" fill="#FF634E"/>
<path d="M36.7465 196.004C35.5305 196.004 34.3145 195.538 33.3835 194.617C31.531 192.764 31.531 189.753 33.3835 187.9L46.8165 174.467C48.669 172.615 51.6805 172.615 53.533 174.467C55.3855 176.32 55.3855 179.332 53.533 181.184L40.1 194.617C39.1785 195.538 37.9625 196.004 36.7465 196.004Z" fill="#FF634E"/>
<path d="M23.75 118.75H4.75C2.128 118.75 0 116.622 0 114C0 111.378 2.128 109.25 4.75 109.25H23.75C26.372 109.25 28.5 111.378 28.5 114C28.5 116.622 26.372 118.75 23.75 118.75Z" fill="#FF634E"/>
<path d="M50.1798 54.929C48.9638 54.929 47.7478 54.4635 46.8168 53.542L33.3933 40.109C31.5408 38.2565 31.5408 35.245 33.3933 33.3925C35.2458 31.54 38.2573 31.54 40.1098 33.3925L53.5428 46.8255C55.3953 48.678 55.3953 51.6895 53.5428 53.542C52.6118 54.4635 51.3958 54.929 50.1798 54.929Z" fill="#FF634E"/>
<path d="M100.443 190C99.8821 190 99.3311 189.905 98.7801 189.706C96.6996 188.926 95.4361 186.818 95.7306 184.632L103.834 123.5H71.2491C69.4536 123.5 67.8101 122.483 67.0026 120.878C66.1951 119.272 66.3661 117.344 67.4491 115.9L124.449 39.9C125.77 38.133 128.116 37.506 130.121 38.38C132.135 39.2445 133.303 41.363 132.942 43.529L124.354 95H156.749C158.497 95 160.103 95.9595 160.929 97.4985C161.756 99.0375 161.67 100.899 160.72 102.372L104.414 187.872C103.511 189.23 102.001 190 100.443 190ZM80.7491 114H109.249C110.627 114 111.919 114.598 112.821 115.624C113.724 116.641 114.142 118.019 113.961 119.377L107.872 165.338L147.933 104.5H118.749C117.353 104.5 116.032 103.892 115.12 102.818C114.218 101.754 113.828 100.339 114.066 98.971L120.364 61.18L80.7491 114Z" fill="#FF634E"/>
</g>
<defs>
<clipPath id="clip0_102_5121">
<rect width="228" height="228" fill="white"/>
</clipPath>
</defs>
</svg>
