<svg width="26" height="21" viewBox="0 0 26 21" fill="none" xmlns="http://www.w3.org/2000/svg">
<path d="M25.1191 0.267302C24.0527 1.01954 22.8719 1.59488 21.6223 1.97117C20.9516 1.19998 20.0603 0.653391 19.0688 0.405311C18.0773 0.15723 17.0336 0.219633 16.0787 0.58408C15.1239 0.948526 14.304 1.59743 13.73 2.44303C13.1559 3.28863 12.8554 4.29013 12.8691 5.31207V6.42571C10.9121 6.47646 8.97283 6.04241 7.22413 5.16223C5.47542 4.28205 3.97154 2.98306 2.84641 1.38094C2.84641 1.38094 -1.60813 11.4037 8.41459 15.8582C6.12109 17.415 3.38893 18.1957 0.619141 18.0855C10.6419 23.6537 22.8919 18.0855 22.8919 5.27867C22.8908 4.96847 22.861 4.65903 22.8028 4.35435C23.9394 3.23346 24.7414 1.81828 25.1191 0.267302Z" fill="white"/>
</svg>
